<svg width="18" height="18" viewBox="0 0 169 152" fill="none" xmlns="http://www.w3.org/2000/svg">
<path d="M96.0001 12.48C96.0001 1.792 83.0721 -3.56 75.5201 4L39.5201 40H24.0641C14.9361 40 5.52006 45.312 2.78406 55.24C0.927874 62.0036 -0.00854985 68.9864 5.88171e-05 76C5.88171e-05 83.184 0.968059 90.144 2.80006 96.76C5.52806 106.68 14.9441 112 24.0721 112H39.5121L75.5121 148C83.0721 155.56 96.0001 150.208 96.0001 139.52V12.48ZM130.24 53.76C129.691 53.1705 129.028 52.6977 128.292 52.3698C127.556 52.0418 126.762 51.8655 125.956 51.8513C125.151 51.8371 124.35 51.9852 123.603 52.287C122.856 52.5888 122.178 53.0379 121.608 53.6077C121.038 54.1774 120.589 54.8561 120.287 55.6032C119.985 56.3503 119.837 57.1506 119.851 57.9562C119.866 58.7618 120.042 59.5563 120.37 60.2923C120.698 61.0283 121.171 61.6907 121.76 62.24L135.52 76L121.76 89.76C121.171 90.3093 120.698 90.9717 120.37 91.7077C120.042 92.4437 119.866 93.2382 119.851 94.0438C119.837 94.8494 119.985 95.6497 120.287 96.3968C120.589 97.1439 121.038 97.8226 121.608 98.3923C122.178 98.9621 122.856 99.4112 123.603 99.713C124.35 100.015 125.151 100.163 125.956 100.149C126.762 100.135 127.556 99.9582 128.292 99.6302C129.028 99.3023 129.691 98.8295 130.24 98.24L144 84.48L157.76 98.24C158.309 98.8295 158.972 99.3023 159.708 99.6302C160.444 99.9582 161.238 100.135 162.044 100.149C162.85 100.163 163.65 100.015 164.397 99.713C165.144 99.4112 165.823 98.9621 166.392 98.3923C166.962 97.8226 167.411 97.1439 167.713 96.3968C168.015 95.6497 168.163 94.8494 168.149 94.0438C168.135 93.2382 167.958 92.4437 167.63 91.7077C167.302 90.9717 166.83 90.3093 166.24 89.76L152.48 76L166.24 62.24C166.83 61.6907 167.302 61.0283 167.63 60.2923C167.958 59.5563 168.135 58.7618 168.149 57.9562C168.163 57.1506 168.015 56.3503 167.713 55.6032C167.411 54.8561 166.962 54.1774 166.392 53.6077C165.823 53.0379 165.144 52.5888 164.397 52.287C163.65 51.9852 162.85 51.8371 162.044 51.8513C161.238 51.8655 160.444 52.0418 159.708 52.3698C158.972 52.6977 158.309 53.1705 157.76 53.76L144 67.52L130.24 53.76Z" fill="currentColor"/>
</svg>
