<svg width="14" height="14" viewBox="0 0 121 121" fill="none" xmlns="http://www.w3.org/2000/svg">
<path fill-rule="evenodd" clip-rule="evenodd" d="M2.93 3.93002C4.80528 2.05531 7.34836 1.00215 10 1.00215C12.6516 1.00215 15.1947 2.05531 17.07 3.93002L60 46.86L102.93 3.93002C103.852 2.97492 104.956 2.21309 106.176 1.689C107.396 1.16491 108.708 0.889052 110.036 0.877514C111.364 0.865976 112.681 1.11899 113.91 1.6218C115.139 2.12461 116.255 2.86714 117.194 3.80607C118.133 4.74499 118.875 5.86151 119.378 7.09048C119.881 8.31944 120.134 9.63624 120.123 10.964C120.111 12.2918 119.835 13.604 119.311 14.8241C118.787 16.0441 118.025 17.1475 117.07 18.07L74.14 61L117.07 103.93C118.892 105.816 119.9 108.342 119.877 110.964C119.854 113.586 118.802 116.094 116.948 117.948C115.094 119.802 112.586 120.854 109.964 120.877C107.342 120.9 104.816 119.892 102.93 118.07L60 75.14L17.07 118.07C15.184 119.892 12.658 120.9 10.036 120.877C7.41402 120.854 4.9059 119.802 3.05182 117.948C1.19773 116.094 0.146042 113.586 0.123258 110.964C0.100473 108.342 1.10842 105.816 2.93 103.93L45.86 61L2.93 18.07C1.05529 16.1947 0.00213623 13.6517 0.00213623 11C0.00213623 8.34838 1.05529 5.8053 2.93 3.93002Z" fill="currentColor"/>
</svg>
