<svg width="18" height="18" viewBox="0 0 176 158" fill="none" xmlns="http://www.w3.org/2000/svg">
<path d="M100.5 12.8333C100.5 1.70001 87.0333 -3.87499 79.1667 4.00001L41.6667 41.5H25.5667C16.0583 41.5 6.25 47.0333 3.4 57.375C1.46647 64.4204 0.491033 71.6941 0.5 79C0.5 86.4833 1.50833 93.7333 3.41667 100.625C6.25833 110.958 16.0667 116.5 25.575 116.5H41.6583L79.1583 154C87.0333 161.875 100.5 156.3 100.5 145.167V12.8333ZM142.867 21.55C144.039 20.3796 145.627 19.7222 147.283 19.7222C148.94 19.7222 150.528 20.3796 151.7 21.55C183.433 53.275 183.433 104.717 151.7 136.45C150.515 137.554 148.948 138.155 147.329 138.126C145.71 138.098 144.165 137.442 143.02 136.297C141.875 135.152 141.219 133.607 141.19 131.988C141.162 130.369 141.763 128.801 142.867 127.617C149.252 121.233 154.316 113.653 157.772 105.311C161.228 96.9698 163.006 88.0291 163.006 79C163.006 69.9709 161.228 61.0302 157.772 52.6885C154.316 44.3468 149.252 36.7675 142.867 30.3833C141.696 29.2115 141.039 27.6229 141.039 25.9667C141.039 24.3104 141.696 22.7219 142.867 21.55Z" fill="currentColor"/>
<path d="M120.767 43.6417C121.347 43.0609 122.036 42.6001 122.795 42.2858C123.553 41.9715 124.366 41.8097 125.187 41.8097C126.009 41.8097 126.822 41.9715 127.58 42.2858C128.339 42.6001 129.028 43.0609 129.608 43.6417C134.252 48.2847 137.936 53.797 140.449 59.8639C142.962 65.9307 144.256 72.4332 144.256 79C144.256 85.5668 142.962 92.0693 140.449 98.1361C137.936 104.203 134.252 109.715 129.608 114.358C128.429 115.496 126.85 116.126 125.211 116.111C123.572 116.095 122.005 115.437 120.847 114.278C119.689 113.119 119.032 111.551 119.019 109.912C119.005 108.273 119.636 106.695 120.775 105.517C124.257 102.034 127.019 97.9005 128.904 93.3507C130.789 88.801 131.759 83.9246 131.759 79C131.759 74.0754 130.789 69.199 128.904 64.6493C127.019 60.0995 124.257 55.9655 120.775 52.4833C119.605 51.3115 118.947 49.7229 118.947 48.0667C118.947 46.4104 119.605 44.8219 120.775 43.65L120.767 43.6417Z" fill="currentColor"/>
</svg>
