<svg width="20" height="16" viewBox="0 0 180 148" fill="none" xmlns="http://www.w3.org/2000/svg">
<path fill-rule="evenodd" clip-rule="evenodd" d="M83.83 4.75999C85.6569 5.51743 87.2181 6.79955 88.3163 8.44424C89.4146 10.0889 90.0005 12.0223 90 14V134C89.9996 135.977 89.4129 137.91 88.314 139.555C87.2152 141.199 85.6535 142.48 83.8265 143.237C81.9995 143.993 79.9892 144.191 78.0497 143.806C76.1102 143.42 74.3285 142.468 72.93 141.07L35.86 104H10C7.34784 104 4.8043 102.946 2.92893 101.071C1.05357 99.1957 0 96.6521 0 94V54C0 51.3478 1.05357 48.8043 2.92893 46.9289C4.8043 45.0536 7.34784 44 10 44H35.86L72.93 6.92999C74.3284 5.53066 76.1105 4.57757 78.0508 4.1913C79.991 3.80503 82.0023 4.00294 83.83 4.75999ZM136.57 3.28998C138.445 1.41527 140.988 0.362122 143.64 0.362122C146.292 0.362122 148.835 1.41527 150.71 3.28998C160.008 12.5665 167.382 23.5885 172.409 35.7231C177.435 47.8576 180.015 60.8656 180 74C180.015 87.1344 177.435 100.142 172.409 112.277C167.382 124.411 160.008 135.433 150.71 144.71C148.824 146.532 146.298 147.539 143.676 147.517C141.054 147.494 138.546 146.442 136.692 144.588C134.838 142.734 133.786 140.226 133.763 137.604C133.74 134.982 134.748 132.456 136.57 130.57C144.011 123.151 149.912 114.333 153.933 104.624C157.955 94.916 160.016 84.5082 160 74C160 51.9 151.06 31.92 136.57 17.43C134.695 15.5547 133.642 13.0116 133.642 10.36C133.642 7.70834 134.695 5.16526 136.57 3.28998ZM108.28 31.57C109.209 30.6402 110.312 29.9026 111.526 29.3994C112.74 28.8961 114.041 28.6371 115.355 28.6371C116.669 28.6371 117.97 28.8961 119.184 29.3994C120.398 29.9026 121.501 30.6402 122.43 31.57C128.009 37.1366 132.433 43.7506 135.448 51.0321C138.463 58.3135 140.01 66.1189 140 74C140.01 81.8809 138.463 89.6862 135.447 96.9676C132.432 104.249 128.008 110.863 122.43 116.43C120.554 118.306 118.009 119.361 115.355 119.361C112.701 119.361 110.156 118.306 108.28 116.43C106.404 114.554 105.349 112.009 105.349 109.355C105.349 106.701 106.404 104.156 108.28 102.28C112.002 98.5718 114.953 94.1641 116.965 89.3106C118.976 84.4571 120.008 79.2537 120 74C120.008 68.7461 118.977 63.5426 116.965 58.6891C114.954 53.8355 112.002 49.4279 108.28 45.72C107.35 44.7912 106.613 43.6884 106.109 42.4744C105.606 41.2604 105.347 39.9591 105.347 38.645C105.347 37.3308 105.606 36.0296 106.109 34.8156C106.613 33.6016 107.35 32.4987 108.28 31.57Z" fill="currentColor" />
</svg>
